<svg viewBox="0 0 512 512" xmlns="http://www.w3.org/2000/svg">
  <!-- Concept A: 条码箱 (Barcode Crate) -->
  <!-- 箱体 -->
  <rect x="104" y="168" width="304" height="244" rx="16" fill="#3b6d11"/>
  <!-- 箱盖 -->
  <rect x="86" y="132" width="340" height="48" rx="14" fill="#7bb342"/>
  <rect x="86" y="132" width="340" height="48" rx="14" fill="none" stroke="#2d550d" stroke-width="6"/>
  <!-- 条码竖条（箱体正面） -->
  <g fill="#0a0b0d">
    <rect x="134" y="206" width="14" height="180" rx="3"/>
    <rect x="156" y="206" width="8"  height="180" rx="3"/>
    <rect x="172" y="206" width="22" height="180" rx="3"/>
    <rect x="202" y="206" width="10" height="180" rx="3"/>
    <rect x="220" y="206" width="16" height="180" rx="3"/>
    <rect x="244" y="206" width="8"  height="180" rx="3"/>
    <rect x="260" y="206" width="26" height="180" rx="3"/>
    <rect x="294" y="206" width="10" height="180" rx="3"/>
    <rect x="312" y="206" width="18" height="180" rx="3"/>
    <rect x="338" y="206" width="8"  height="180" rx="3"/>
    <rect x="354" y="206" width="22" height="180" rx="3"/>
    <rect x="384" y="206" width="10" height="180" rx="3"/>
  </g>
  <!-- 箱体描边 -->
  <rect x="104" y="168" width="304" height="244" rx="16" fill="none" stroke="#2d550d" stroke-width="8"/>
</svg>
